<svg width="14" height="15" viewBox="0 0 14 15" fill="none" xmlns="http://www.w3.org/2000/svg">
<path fill-rule="evenodd" clip-rule="evenodd" d="M7.01937 1.5C4.00658 1.5 1.5 4.14943 1.5 7.5C1.5 10.8506 4.00658 13.5 7.01937 13.5C10.0322 13.5 12.5387 10.8506 12.5387 7.5C12.5387 4.14943 10.0322 1.5 7.01937 1.5ZM0.5 7.5C0.5 3.67087 3.38334 0.5 7.01937 0.5C10.6554 0.5 13.5387 3.67087 13.5387 7.5C13.5387 11.3291 10.6554 14.5 7.01937 14.5C3.38334 14.5 0.5 11.3291 0.5 7.5Z" fill="white"/>
<path fill-rule="evenodd" clip-rule="evenodd" d="M0.5 7.5C0.5 7.22386 0.723858 7 1 7H13.0387C13.3149 7 13.5387 7.22386 13.5387 7.5C13.5387 7.77614 13.3149 8 13.0387 8H1C0.723858 8 0.5 7.77614 0.5 7.5Z" fill="white"/>
<path fill-rule="evenodd" clip-rule="evenodd" d="M5.11143 7.49991C5.15357 9.5826 5.82908 11.5817 7.01907 13.194C8.20907 11.5817 8.88458 9.5826 8.92672 7.49991C8.88458 5.41723 8.20907 3.41813 7.01907 1.80579C5.82908 3.41813 5.15357 5.41723 5.11143 7.49991ZM7.01907 0.999913L6.63733 0.677002C5.05481 2.54785 4.16005 4.96943 4.11142 7.49027C4.1113 7.4967 4.1113 7.50313 4.11142 7.50956C4.16005 10.0304 5.05481 12.452 6.63733 14.3228C6.73233 14.4351 6.87197 14.4999 7.01907 14.4999C7.16618 14.4999 7.30582 14.4351 7.40082 14.3228C8.98334 12.452 9.8781 10.0304 9.92673 7.50956C9.92685 7.50313 9.92685 7.4967 9.92673 7.49027C9.8781 4.96943 8.98334 2.54785 7.40082 0.677002L7.01907 0.999913Z" fill="white"/>
</svg>
