<svg width="67" height="66" viewBox="0 0 67 66" fill="none" xmlns="http://www.w3.org/2000/svg">
<path d="M5.087 64.3746V65.8465H0V58.2278H1.71921V64.3746H5.087Z" fill="#247CC0"/>
<path d="M6.19434 58.2278H7.91356V65.8465H6.19434V58.2278Z" fill="#247CC0"/>
<path d="M14.7775 65.8465C14.283 64.9751 13.7531 64.1155 13.1879 63.2559C12.6109 62.4081 12.0103 61.6073 11.3627 60.8419V65.8347H9.66699V58.2278H11.0683C11.3156 58.4751 11.5746 58.7695 11.869 59.1227C12.1634 59.476 12.4578 59.8528 12.7639 60.2532C13.0701 60.6535 13.3763 61.0657 13.6706 61.5014C13.9768 61.9253 14.2594 62.3374 14.5185 62.7378V58.2278H16.2259V65.8465H14.7775Z" fill="#247CC0"/>
<path d="M22.4787 65.8465C22.3256 65.5992 22.1372 65.3284 21.937 65.0458C21.7251 64.7632 21.5013 64.4688 21.2541 64.1744C21.0068 63.88 20.7595 63.5974 20.4886 63.3383C20.2296 63.0675 19.9588 62.832 19.6997 62.6318V65.8583H17.9805V58.2278H19.6997V61.0892C20.1354 60.63 20.5946 60.1354 21.0421 59.6408C21.5013 59.1345 21.9135 58.6635 22.3021 58.2278H24.3392C23.8211 58.8401 23.303 59.4407 22.7731 60.0059C22.2432 60.5711 21.6897 61.1481 21.1128 61.7251C21.7251 62.2314 22.3138 62.832 22.8791 63.5385C23.4443 64.2333 23.986 65.0104 24.5158 65.8465H22.4787Z" fill="#247CC0"/>
<path d="M25.5059 65.8465V58.2278H30.6517V59.6644H27.2251V61.1599H30.2749V62.5729H27.2251V64.4099H30.9108V65.8465H25.5059Z" fill="#247CC0"/>
<path d="M38.8476 62.0319C38.8476 62.6913 38.7416 63.2683 38.5414 63.7629C38.3412 64.2575 38.0469 64.6578 37.67 64.9875C37.2932 65.3055 36.834 65.5528 36.2923 65.7176C35.7506 65.8825 35.1383 65.9649 34.4671 65.9649C34.161 65.9649 33.7959 65.9531 33.3838 65.9296C32.9716 65.906 32.5713 65.8471 32.1709 65.7647V58.3344C32.5713 58.2638 32.9834 58.2166 33.4073 58.1813C33.8312 58.1578 34.2081 58.146 34.5142 58.146C35.1619 58.146 35.7624 58.2167 36.2923 58.3697C36.8222 58.511 37.2815 58.7465 37.6583 59.0645C38.0351 59.3824 38.3295 59.7828 38.5414 60.2774C38.7416 60.7484 38.8476 61.3371 38.8476 62.0319ZM33.8901 64.4459C33.9726 64.4576 34.0667 64.4576 34.1727 64.4576C34.2787 64.4576 34.4082 64.4576 34.5495 64.4576C35.4092 64.4576 36.045 64.2457 36.4572 63.81C36.8693 63.3743 37.0813 62.7855 37.0813 62.0201C37.0813 61.2194 36.8811 60.6188 36.4925 60.2067C36.0921 59.7946 35.468 59.5944 34.6084 59.5944C34.4907 59.5944 34.3729 59.5944 34.2434 59.5944C34.1139 59.5944 33.9961 59.6062 33.8901 59.6179V64.4459Z" fill="#247CC0"/>
<path d="M45.6769 58.2278V59.6879H43.3807V65.8465H41.6614V59.6879H39.3652V58.2278H45.6769Z" fill="#247CC0"/>
<path d="M46.7842 65.8465V58.2278H51.93V59.6644H48.5034V61.1599H51.5532V62.5729H48.5034V64.4099H52.1891V65.8465H46.7842Z" fill="#247CC0"/>
<path d="M56.9217 66.0001C55.6853 66.0001 54.7432 65.6586 54.0838 64.9639C53.4362 64.2691 53.1064 63.2918 53.1064 62.0318C53.1064 61.3959 53.2006 60.8425 53.4008 60.3479C53.601 59.8533 53.8719 59.4294 54.2133 59.0997C54.5548 58.7582 54.967 58.4992 55.4498 58.3225C55.9208 58.1459 56.4389 58.0635 57.0041 58.0635C57.3221 58.0635 57.6164 58.087 57.8873 58.1341C58.1463 58.1812 58.3818 58.2401 58.582 58.299C58.7822 58.3579 58.9471 58.4285 59.0766 58.4874C59.2061 58.558 59.3003 58.6052 59.3592 58.6405L58.8646 60.03C58.6291 59.9004 58.3583 59.7945 58.0404 59.712C57.7342 59.6296 57.3692 59.5825 56.9806 59.5825C56.7215 59.5825 56.4625 59.6296 56.2034 59.712C55.9561 59.7945 55.7324 59.9358 55.5322 60.136C55.332 60.3361 55.1789 60.5834 55.0612 60.8896C54.9434 61.1957 54.8845 61.5726 54.8845 62.0083C54.8845 62.3615 54.9199 62.6912 55.0023 62.9974C55.0847 63.3036 55.2025 63.5626 55.3791 63.7864C55.5557 64.0101 55.7795 64.1749 56.0503 64.3045C56.3329 64.434 56.6626 64.4929 57.063 64.4929C57.3103 64.4929 57.534 64.4811 57.7342 64.4458C57.9344 64.4222 58.111 64.3869 58.2641 64.3398C58.4172 64.3045 58.5585 64.2574 58.6762 64.1985C58.794 64.1514 58.9 64.1043 58.9942 64.0572L59.4652 65.4349C59.2179 65.5762 58.8764 65.7175 58.4407 65.8353C58.005 65.9413 57.4987 66.0001 56.9217 66.0001Z" fill="#247CC0"/>
<path d="M65.1765 58.2278H66.8957V65.8465H65.1765V62.6083H62.2915V65.8465H60.5723V58.2278H62.2915V61.1481H65.1765V58.2278Z" fill="#247CC0"/>
<path d="M21.8442 11.182C21.9855 10.028 22.4565 8.96825 23.1513 8.10864L21.3967 6.28345L15.9918 9.40394C15.3677 9.76898 14.8025 10.4402 14.4492 11.182H21.8442Z" fill="#262262"/>
<path d="M33.4428 31.4949L29.0859 18.0121C28.7208 18.0827 28.344 18.118 27.9554 18.118C27.2136 18.118 26.507 17.9885 25.8476 17.7412L21.5967 25.9605C22.1972 26.5139 22.5858 27.3147 22.5858 28.1978C22.5858 28.3156 22.574 28.4333 22.5623 28.5511L32.3948 32.4841C32.6656 32.0955 33.0306 31.754 33.4428 31.4949Z" fill="#1C75BC"/>
<path d="M19.5596 25.1837C19.7833 25.1837 19.9953 25.2072 20.2072 25.2543L24.4582 17.035C23.0569 16.0695 22.0795 14.5269 21.8558 12.7488H14.084V12.7606V18.5423L18.6058 25.3367C18.9001 25.2425 19.2181 25.1837 19.5596 25.1837Z" fill="#2B3990"/>
<path d="M35.2324 31.0006C35.4914 31.0006 35.7505 31.0359 35.9978 31.083L41.2378 20.1907C40.1074 19.3782 39.3773 18.0593 39.3773 16.5521C39.3773 16.399 39.3891 16.2341 39.4009 16.0811L33.6074 14.4089C33.0068 15.7867 31.9352 16.8936 30.5811 17.5294L34.938 31.0123C35.0322 31.0123 35.1382 31.0006 35.2324 31.0006Z" fill="#1C75BC"/>
<path d="M46.4199 20.2261C46.1726 20.4027 45.9018 20.5558 45.6074 20.6735L46.7732 25.7134C48.0449 25.8312 49.0458 26.9028 49.0458 28.1981C49.0458 28.5984 48.9516 28.987 48.775 29.3285L52.1546 32.7081C52.5549 32.0604 52.814 31.3185 52.814 30.6591V26.6319L46.4199 20.2261Z" fill="#2EA8E0"/>
<path d="M31.7582 34.4744C31.7582 34.2977 31.77 34.1211 31.7936 33.9445L21.9728 30.0115C21.7373 30.3176 21.4547 30.5885 21.125 30.7887L23.2917 38.219L27.7899 40.8096L32.2881 36.3113C31.9584 35.7814 31.7582 35.1456 31.7582 34.4744Z" fill="#2EA8E0"/>
<path d="M45.2418 26.0663L44.0761 21.0264C44.0054 21.0264 43.923 21.0264 43.8523 21.0264C43.4402 21.0264 43.028 20.9676 42.6512 20.8616L37.4111 31.7539C37.5524 31.8716 37.6937 32.0012 37.8115 32.1307L44.0878 28.6569C44.0643 28.5038 44.0407 28.3508 44.0407 28.1859C44.0407 27.3027 44.5235 26.502 45.2418 26.0663Z" fill="#2EA8E0"/>
<path d="M51.5654 9.95752L47.5264 13.9965C48.0327 14.7266 48.3389 15.6097 48.3389 16.5635C48.3389 17.5174 48.0445 18.4005 47.5264 19.1306L52.8135 24.4178V12.7719C52.8135 11.818 52.2954 10.6994 51.5654 9.95752Z" fill="#1C75BC"/>
<path d="M37.0692 37.4182C36.5393 37.7479 35.9034 37.9481 35.2322 37.9481C34.561 37.9481 33.9251 37.7597 33.3952 37.4182L29.1914 41.6221L31.4994 42.9527C32.571 43.565 34.3137 43.565 35.3735 42.9527L39.9542 40.3032L37.0692 37.4182Z" fill="#5DCBEC"/>
<path d="M19.6185 31.2242C19.595 31.2242 19.5714 31.2242 19.5596 31.2242C17.8875 31.2242 16.5333 29.87 16.5333 28.1979C16.5333 27.4325 16.816 26.7378 17.287 26.1961L14.0723 21.3682V30.6472C14.0723 31.8836 14.9436 33.3909 16.0152 34.0032L21.3377 37.0766L19.6185 31.2242Z" fill="#1C75BC"/>
<path d="M47.6678 30.4352C47.3264 30.6001 46.9495 30.7061 46.5374 30.7061C45.878 30.7061 45.2892 30.4588 44.8417 30.0466L38.5654 33.5204C38.6478 33.8266 38.6949 34.1445 38.6949 34.4742C38.6949 35.1454 38.5065 35.7813 38.165 36.3112L41.3562 39.5023L50.859 34.015C50.9296 33.9679 51.0121 33.9208 51.0827 33.8737L47.6678 30.4352Z" fill="#5DCBEC"/>
<path d="M34.1135 11.9713C34.1135 12.2893 34.0899 12.6072 34.0428 12.9134L39.8364 14.5855C40.4016 13.4433 41.426 12.5837 42.686 12.2422L41.9677 4.27018L35.8562 0.737549L31.8408 7.1905C33.2303 8.32094 34.1135 10.0402 34.1135 11.9713Z" fill="#2B3990"/>
<path d="M24.2932 7.02577C25.3177 6.26037 26.5894 5.8129 27.9672 5.8129C28.8739 5.8129 29.7452 6.01308 30.5224 6.36635L34.4083 0.101805C33.431 -0.110153 32.2887 0.00760602 31.5116 0.466849L22.8213 5.48319L24.2932 7.02577Z" fill="#262262"/>
<path d="M50.2585 9.05163L43.6289 5.22461L44.2412 12.1015C45.042 12.1721 45.7956 12.4547 46.4197 12.8904L50.2585 9.05163Z" fill="#2B3990"/>
<path d="M22.5622 28.5632L32.3947 32.4962C32.6773 32.0958 33.0305 31.7543 33.4545 31.507L29.5921 19.5549C26.7071 21.4155 24.1048 23.6528 21.8203 26.2081C22.2913 26.738 22.5857 27.4445 22.5857 28.2217C22.5857 28.3276 22.5739 28.4454 22.5622 28.5632Z" fill="url(#paint0_linear_158_846)"/>
<path d="M35.2325 31.0003C35.4915 31.0003 35.7506 31.0356 35.9979 31.0827L41.238 20.1904C40.1075 19.3779 39.3775 18.0591 39.3775 16.5518C39.3775 16.3987 39.3892 16.2339 39.401 16.0808L37.6582 15.5745C35.3149 16.3987 33.0658 17.4468 30.958 18.6832L34.9381 31.0003C35.0323 31.0121 35.1383 31.0003 35.2325 31.0003Z" fill="url(#paint1_linear_158_846)"/>
<path d="M45.6064 20.6852L46.7722 25.7251C48.044 25.8429 49.0449 26.9144 49.0449 28.2097C49.0449 28.6101 48.9507 28.9987 48.774 29.3402L52.1536 32.7197C52.554 32.0721 52.813 31.3302 52.813 30.6708V26.6436L46.4189 20.2495C46.1717 20.4026 45.9008 20.5557 45.6064 20.6852Z" fill="url(#paint2_linear_158_846)"/>
<path d="M31.7592 34.4739C31.7592 34.2973 31.771 34.1206 31.7945 33.944L21.9738 30.011C21.7383 30.3171 21.4557 30.588 21.126 30.7882L23.2927 38.2185L27.7909 40.8091L32.2891 36.3109C31.9594 35.781 31.7592 35.1451 31.7592 34.4739Z" fill="url(#paint3_linear_158_846)"/>
<path d="M37.8115 32.1542L44.0878 28.6805C44.0643 28.5274 44.0407 28.3743 44.0407 28.2095C44.0407 27.3027 44.5235 26.5138 45.2418 26.0663L44.0761 21.0264C44.0054 21.0264 43.923 21.0264 43.8523 21.0264C43.4402 21.0264 43.028 20.9676 42.6512 20.8616L37.4111 31.7539C37.5524 31.8834 37.682 32.0129 37.8115 32.1542Z" fill="url(#paint4_linear_158_846)"/>
<path d="M48.3389 16.5637C48.3389 17.5176 48.0445 18.4007 47.5264 19.1308L52.8135 24.418V13.5492C51.9657 13.4903 51.1179 13.4668 50.2583 13.4668C49.5047 13.4668 48.751 13.4904 48.0092 13.5375L47.5381 14.0085C48.0327 14.7268 48.3389 15.6099 48.3389 16.5637Z" fill="url(#paint5_linear_158_846)"/>
<path d="M35.2332 37.9479C34.562 37.9479 33.9261 37.7595 33.3962 37.418L29.1924 41.6219L31.5004 42.9525C32.5719 43.5648 34.3147 43.5648 35.3745 42.9525L39.9552 40.303L37.0584 37.4062C36.5403 37.7595 35.9044 37.9479 35.2332 37.9479Z" fill="url(#paint6_linear_158_846)"/>
<path d="M19.6184 31.2239C19.5949 31.2239 19.5713 31.2239 19.5595 31.2239C19.0767 31.2239 18.6175 31.1062 18.2171 30.906C17.5342 31.9658 16.8983 33.0609 16.3213 34.1796L21.3259 37.0763L19.6184 31.2239Z" fill="url(#paint7_linear_158_846)"/>
<path d="M46.5491 30.7061C45.8897 30.7061 45.3009 30.4588 44.8534 30.0466L38.5771 33.5204C38.6596 33.8266 38.7067 34.1445 38.7067 34.4742C38.7067 35.1454 38.5182 35.7813 38.1768 36.3112L41.3679 39.5023L50.8707 34.015C50.9414 33.9679 51.0238 33.9208 51.0944 33.8737L47.6678 30.447C47.3263 30.6119 46.9495 30.7061 46.5491 30.7061Z" fill="url(#paint8_linear_158_846)"/>
<defs>
<linearGradient id="paint0_linear_158_846" x1="25.1824" y1="22.4244" x2="30.0763" y2="31.3966" gradientUnits="userSpaceOnUse">
<stop stop-color="white" stop-opacity="0.4"/>
<stop offset="1" stop-color="white" stop-opacity="0"/>
</linearGradient>
<linearGradient id="paint1_linear_158_846" x1="33.9474" y1="17.643" x2="38.8414" y2="26.6154" gradientUnits="userSpaceOnUse">
<stop stop-color="white" stop-opacity="0.4"/>
<stop offset="1" stop-color="white" stop-opacity="0"/>
</linearGradient>
<linearGradient id="paint2_linear_158_846" x1="42.5759" y1="12.9368" x2="47.4699" y2="21.909" gradientUnits="userSpaceOnUse">
<stop stop-color="white" stop-opacity="0.4"/>
<stop offset="1" stop-color="white" stop-opacity="0"/>
</linearGradient>
<linearGradient id="paint3_linear_158_846" x1="21.2634" y1="24.5617" x2="26.1574" y2="33.534" gradientUnits="userSpaceOnUse">
<stop stop-color="white" stop-opacity="0.4"/>
<stop offset="1" stop-color="white" stop-opacity="0"/>
</linearGradient>
<linearGradient id="paint4_linear_158_846" x1="35.5055" y1="16.7932" x2="40.3995" y2="25.7656" gradientUnits="userSpaceOnUse">
<stop stop-color="white" stop-opacity="0.4"/>
<stop offset="1" stop-color="white" stop-opacity="0"/>
</linearGradient>
<linearGradient id="paint5_linear_158_846" x1="47.0036" y1="10.5219" x2="51.8975" y2="19.4942" gradientUnits="userSpaceOnUse">
<stop stop-color="white" stop-opacity="0.4"/>
<stop offset="1" stop-color="white" stop-opacity="0"/>
</linearGradient>
<linearGradient id="paint6_linear_158_846" x1="24.6284" y1="22.7264" x2="29.5225" y2="31.6988" gradientUnits="userSpaceOnUse">
<stop stop-color="white" stop-opacity="0.4"/>
<stop offset="1" stop-color="white" stop-opacity="0"/>
</linearGradient>
<linearGradient id="paint7_linear_158_846" x1="15.2999" y1="27.8146" x2="20.1938" y2="36.7867" gradientUnits="userSpaceOnUse">
<stop stop-color="white" stop-opacity="0.4"/>
<stop offset="1" stop-color="white" stop-opacity="0"/>
</linearGradient>
<linearGradient id="paint8_linear_158_846" x1="34.8538" y1="17.1491" x2="39.7478" y2="26.1214" gradientUnits="userSpaceOnUse">
<stop stop-color="white" stop-opacity="0.4"/>
<stop offset="1" stop-color="white" stop-opacity="0"/>
</linearGradient>
</defs>
</svg>
