<svg width="44" height="44" viewBox="0 0 44 44" fill="none" xmlns="http://www.w3.org/2000/svg">
<circle cx="22" cy="22" r="22" fill="#F3F3F3"/>
<circle cx="22" cy="22" r="19" fill="white"/>
<path d="M19.3181 30.2727C19.7198 30.2727 20.0454 29.947 20.0454 29.5454C20.0454 29.1437 19.7198 28.8181 19.3181 28.8181C18.9164 28.8181 18.5908 29.1437 18.5908 29.5454C18.5908 29.947 18.9164 30.2727 19.3181 30.2727Z" stroke="black" stroke-width="1.5" stroke-linecap="round" stroke-linejoin="round"/>
<path d="M27.3181 30.2727C27.7198 30.2727 28.0454 29.947 28.0454 29.5454C28.0454 29.1437 27.7198 28.8181 27.3181 28.8181C26.9164 28.8181 26.5908 29.1437 26.5908 29.5454C26.5908 29.947 26.9164 30.2727 27.3181 30.2727Z" stroke="black" stroke-width="1.5" stroke-linecap="round" stroke-linejoin="round"/>
<path d="M13.5 15H16.4091L18.3582 24.7382C18.4247 25.073 18.6068 25.3738 18.8728 25.5879C19.1387 25.8019 19.4714 25.9156 19.8127 25.9091H26.8818C27.2231 25.9156 27.5559 25.8019 27.8218 25.5879C28.0877 25.3738 28.2699 25.073 28.3364 24.7382L29.5 18.6364H17.1364" stroke="black" stroke-width="1.5" stroke-linecap="round" stroke-linejoin="round"/>
</svg>
