<svg width="106" height="26" viewBox="0 0 106 26" fill="none" xmlns="http://www.w3.org/2000/svg">
<path d="M36.7032 16.2432V17.8934H31V9.35181H32.9275V16.2432H36.7032Z" fill="#247CC0"/>
<path d="M37.9443 9.35181H39.8718V17.8934H37.9443V9.35181Z" fill="#247CC0"/>
<path d="M47.5685 17.8934C47.014 16.9165 46.4199 15.9528 45.7862 14.989C45.1393 14.0385 44.466 13.1408 43.7399 12.2826V17.8802H41.8389V9.35181H43.4099C43.6871 9.62905 43.9776 9.95909 44.3076 10.3551C44.6377 10.7512 44.9677 11.1737 45.311 11.6225C45.6542 12.0714 45.9975 12.5335 46.3275 13.0219C46.6708 13.4972 46.9876 13.9593 47.2781 14.4081V9.35181H49.1923V17.8934H47.5685Z" fill="#247CC0"/>
<path d="M56.2023 17.8934C56.0307 17.6162 55.8195 17.3126 55.595 16.9957C55.3574 16.6789 55.1066 16.3488 54.8293 16.0188C54.5521 15.6887 54.2748 15.3719 53.9712 15.0814C53.6807 14.7778 53.3771 14.5138 53.0867 14.2893V17.9066H51.1592V9.35181H53.0867V12.5599C53.5751 12.045 54.09 11.4905 54.5917 10.936C55.1065 10.3684 55.5686 9.84028 56.0043 9.35181H58.2882C57.7073 10.0383 57.1264 10.7116 56.5324 11.3453C55.9383 11.979 55.3178 12.6259 54.6709 13.2728C55.3574 13.8405 56.0175 14.5137 56.6512 15.3059C57.2849 16.0848 57.8921 16.9561 58.4862 17.8934H56.2023Z" fill="#247CC0"/>
<path d="M59.5957 17.8934V9.35181H65.3649V10.9624H61.5232V12.6391H64.9425V14.2233H61.5232V16.2828H65.6554V17.8934H59.5957V17.8934Z" fill="#247CC0"/>
<path d="M74.5529 13.6161C74.5529 14.3555 74.4341 15.0024 74.2096 15.5568C73.9852 16.1113 73.6551 16.5602 73.2327 16.9298C72.8102 17.2863 72.2953 17.5635 71.688 17.7483C71.0808 17.9332 70.3943 18.0256 69.6418 18.0256C69.2985 18.0256 68.8893 18.0124 68.4272 17.986C67.9651 17.9596 67.5162 17.8936 67.0674 17.8012V9.47076C67.5162 9.39155 67.9783 9.33873 68.4536 9.29913C68.9289 9.27272 69.3513 9.25952 69.6946 9.25952C70.4207 9.25952 71.094 9.33874 71.688 9.51036C72.2821 9.66878 72.797 9.93282 73.2195 10.2893C73.6419 10.6457 73.972 11.0946 74.2096 11.6491C74.4341 12.1771 74.5529 12.8372 74.5529 13.6161ZM68.9949 16.3225C69.0873 16.3357 69.1929 16.3357 69.3117 16.3357C69.4305 16.3357 69.5758 16.3357 69.7342 16.3357C70.6979 16.3357 71.4108 16.0981 71.8729 15.6096C72.3349 15.1212 72.5726 14.4611 72.5726 13.603C72.5726 12.7052 72.3482 12.0319 71.9125 11.5699C71.4636 11.1078 70.7639 10.8834 69.8002 10.8834C69.6682 10.8834 69.5362 10.8834 69.3909 10.8834C69.2457 10.8834 69.1137 10.8966 68.9949 10.9098V16.3225V16.3225Z" fill="#247CC0"/>
<path d="M82.21 9.35181V10.9888H79.6356V17.8934H77.7082V10.9888H75.1338V9.35181H82.21Z" fill="#247CC0"/>
<path d="M83.4512 17.8934V9.35181H89.2204V10.9624H85.3786V12.6391H88.7979V14.2233H85.3786V16.2828H89.5108V17.8934H83.4512V17.8934Z" fill="#247CC0"/>
<path d="M94.8184 18.0651C93.4322 18.0651 92.3761 17.6822 91.6368 16.9033C90.9107 16.1244 90.541 15.0286 90.541 13.616C90.541 12.9031 90.6466 12.2826 90.8711 11.7282C91.0955 11.1737 91.3991 10.6984 91.782 10.3288C92.1649 9.94591 92.6269 9.65546 93.1682 9.45744C93.6963 9.25941 94.2772 9.16699 94.9108 9.16699C95.2673 9.16699 95.5973 9.1934 95.901 9.24621C96.1914 9.29902 96.4555 9.36502 96.6799 9.43103C96.9043 9.49704 97.0892 9.57626 97.2344 9.64227C97.3796 9.72148 97.4852 9.77428 97.5512 9.81389L96.9967 11.3717C96.7327 11.2265 96.4291 11.1077 96.0726 11.0153C95.7294 10.9228 95.3201 10.87 94.8844 10.87C94.594 10.87 94.3036 10.9228 94.0131 11.0153C93.7359 11.1077 93.485 11.2661 93.2606 11.4905C93.0362 11.715 92.8645 11.9922 92.7325 12.3354C92.6005 12.6787 92.5345 13.1012 92.5345 13.5896C92.5345 13.9857 92.5741 14.3553 92.6665 14.6986C92.7589 15.0418 92.891 15.3323 93.089 15.5831C93.287 15.834 93.5378 16.0188 93.8415 16.164C94.1583 16.3092 94.528 16.3752 94.9769 16.3752C95.2541 16.3752 95.5049 16.362 95.7294 16.3224C95.9538 16.296 96.1518 16.2564 96.3235 16.2036C96.4951 16.164 96.6535 16.1112 96.7855 16.0452C96.9175 15.9924 97.0364 15.9396 97.142 15.8868L97.67 17.4314C97.3928 17.5898 97.01 17.7482 96.5215 17.8802C96.033 17.9991 95.4653 18.0651 94.8184 18.0651Z" fill="#247CC0"/>
<path d="M104.072 9.35181H106V17.8934H104.072V14.2629H100.838V17.8934H98.9102V9.35181H100.838V12.6259H104.072V9.35181Z" fill="#247CC0"/>
<path d="M4.59425 6.61068C4.67779 5.92849 4.95623 5.30198 5.36694 4.79382L4.32973 3.71484L1.13456 5.55955C0.765624 5.77534 0.43149 6.17213 0.222656 6.61068H4.59425Z" fill="#262262"/>
<path d="M11.4511 18.6187L8.87553 10.6481C8.65973 10.6899 8.43698 10.7108 8.20726 10.7108C7.76871 10.7108 7.35104 10.6342 6.96121 10.488L4.44824 15.3469C4.80326 15.6741 5.03298 16.1474 5.03298 16.6695C5.03298 16.7391 5.02601 16.8088 5.01905 16.8784L10.8316 19.2034C10.9917 18.9737 11.2075 18.7718 11.4511 18.6187Z" fill="#1C75BC"/>
<path d="M3.24377 14.8873C3.37603 14.8873 3.50133 14.9013 3.62663 14.9291L6.1396 10.0702C5.31122 9.49942 4.73345 8.58751 4.60119 7.53638H0.00683594V7.54334V10.9613L2.67992 14.9778C2.85394 14.9221 3.04189 14.8873 3.24377 14.8873Z" fill="#2B3990"/>
<path d="M12.5094 18.3263C12.6626 18.3263 12.8157 18.3472 12.9619 18.375L16.0596 11.936C15.3913 11.4557 14.9597 10.676 14.9597 9.78499C14.9597 9.6945 14.9667 9.59704 14.9737 9.50655L11.5488 8.51807C11.1938 9.33252 10.5603 9.98687 9.75977 10.3628L12.3354 18.3333C12.3911 18.3333 12.4537 18.3263 12.5094 18.3263Z" fill="#1C75BC"/>
<path d="M19.1219 11.9568C18.9757 12.0612 18.8156 12.1517 18.6416 12.2213L19.3307 15.2007C20.0826 15.2703 20.6743 15.9038 20.6743 16.6695C20.6743 16.9062 20.6186 17.1359 20.5141 17.3377L22.512 19.3356C22.7487 18.9527 22.9018 18.5142 22.9018 18.1244V15.7436L19.1219 11.9568Z" fill="#2EA8E0"/>
<path d="M10.4558 20.3797C10.4558 20.2753 10.4628 20.1709 10.4767 20.0665L4.67112 17.7415C4.5319 17.9224 4.36483 18.0826 4.16992 18.2009L5.45077 22.5934L8.10993 24.1248L10.7691 21.4657C10.5742 21.1524 10.4558 20.7765 10.4558 20.3797Z" fill="#2EA8E0"/>
<path d="M18.426 15.4096L17.7369 12.4302C17.6951 12.4302 17.6464 12.4302 17.6046 12.4302C17.361 12.4302 17.1173 12.3954 16.8946 12.3328L13.7969 18.7718C13.8804 18.8414 13.9639 18.918 14.0336 18.9946L17.7438 16.941C17.7299 16.8505 17.716 16.76 17.716 16.6626C17.716 16.1405 18.0014 15.6672 18.426 15.4096Z" fill="#2EA8E0"/>
<path d="M22.164 5.88672L19.7764 8.27439C20.0757 8.70598 20.2567 9.22806 20.2567 9.79192C20.2567 10.3558 20.0827 10.8779 19.7764 11.3094L22.9019 14.435V7.55043C22.9019 6.98658 22.5956 6.32527 22.164 5.88672Z" fill="#1C75BC"/>
<path d="M13.5955 22.1201C13.2822 22.315 12.9063 22.4334 12.5095 22.4334C12.1128 22.4334 11.7369 22.322 11.4236 22.1201L8.93848 24.6052L10.3029 25.3919C10.9363 25.7538 11.9666 25.7538 12.5931 25.3919L15.301 23.8256L13.5955 22.1201Z" fill="#5DCBEC"/>
<path d="M3.2787 18.4586C3.26477 18.4586 3.25085 18.4586 3.24389 18.4586C2.25541 18.4586 1.45488 17.658 1.45488 16.6695C1.45488 16.2171 1.62195 15.8064 1.90039 15.4861L0 12.6321V18.1175C0 18.8484 0.515124 19.7394 1.14859 20.1014L4.29502 21.9182L3.2787 18.4586Z" fill="#1C75BC"/>
<path d="M19.8608 17.9922C19.6589 18.0896 19.4362 18.1523 19.1925 18.1523C18.8027 18.1523 18.4547 18.0061 18.1901 17.7625L14.4798 19.816C14.5286 19.997 14.5564 20.1849 14.5564 20.3798C14.5564 20.7766 14.445 21.1525 14.2432 21.4658L16.1296 23.3523L21.7473 20.1084C21.789 20.0805 21.8378 20.0527 21.8795 20.0248L19.8608 17.9922Z" fill="#5DCBEC"/>
<path d="M11.8474 7.07696C11.8474 7.26491 11.8335 7.45286 11.8056 7.63385L15.2305 8.62233C15.5647 7.9471 16.1703 7.43894 16.9151 7.23707L16.4905 2.52438L12.8777 0.436035L10.5039 4.25074C11.3253 4.91901 11.8474 5.93533 11.8474 7.07696Z" fill="#2B3990"/>
<path d="M6.04202 4.15333C6.64764 3.70086 7.39944 3.43634 8.21389 3.43634C8.7499 3.43634 9.26502 3.55468 9.72445 3.76351L12.0216 0.0601829C11.4439 -0.0651176 10.7686 0.00449635 10.3092 0.275981L5.17188 3.24143L6.04202 4.15333Z" fill="#262262"/>
<path d="M21.3918 5.35075L17.4727 3.08838L17.8346 7.15369C18.308 7.19545 18.7535 7.36252 19.1224 7.62008L21.3918 5.35075Z" fill="#2B3990"/>
<path d="M5.01862 16.8853L10.8312 19.2104C10.9982 18.9737 11.2071 18.7718 11.4577 18.6256L9.17443 11.5601C7.46895 12.6599 5.93054 13.9825 4.58008 15.4931C4.85852 15.8064 5.03255 16.224 5.03255 16.6835C5.03255 16.7461 5.02559 16.8157 5.01862 16.8853Z" fill="url(#paint0_linear_159_1509)"/>
<path d="M12.5093 18.3264C12.6625 18.3264 12.8156 18.3473 12.9618 18.3751L16.0595 11.936C15.3912 11.4557 14.9596 10.6761 14.9596 9.78505C14.9596 9.69455 14.9666 9.5971 14.9736 9.5066L13.9433 9.20728C12.558 9.69456 11.2285 10.3141 9.98242 11.045L12.3353 18.3264C12.391 18.3333 12.4536 18.3264 12.5093 18.3264Z" fill="url(#paint1_linear_159_1509)"/>
<path d="M18.6416 12.2283L19.3307 15.2076C20.0826 15.2772 20.6743 15.9107 20.6743 16.6764C20.6743 16.9131 20.6186 17.1428 20.5141 17.3447L22.512 19.3425C22.7487 18.9597 22.9018 18.5211 22.9018 18.1313V15.7506L19.1219 11.9707C18.9757 12.0612 18.8156 12.1517 18.6416 12.2283Z" fill="url(#paint2_linear_159_1509)"/>
<path d="M10.4549 20.38C10.4549 20.2756 10.4618 20.1711 10.4757 20.0667L4.67014 17.7417C4.53092 17.9227 4.36386 18.0828 4.16895 18.2011L5.4498 22.5936L8.10895 24.1251L10.7681 21.4659C10.5732 21.1527 10.4549 20.7768 10.4549 20.38Z" fill="url(#paint3_linear_159_1509)"/>
<path d="M14.0336 19.0085L17.7438 16.955C17.7299 16.8645 17.716 16.774 17.716 16.6765C17.716 16.1405 18.0014 15.6741 18.426 15.4096L17.7369 12.4302C17.6951 12.4302 17.6464 12.4302 17.6046 12.4302C17.361 12.4302 17.1173 12.3954 16.8946 12.3328L13.7969 18.7718C13.8804 18.8484 13.957 18.925 14.0336 19.0085Z" fill="url(#paint4_linear_159_1509)"/>
<path d="M20.2567 9.79196C20.2567 10.3558 20.0827 10.8779 19.7764 11.3095L22.9019 14.435V8.00991C22.4007 7.9751 21.8995 7.96118 21.3914 7.96118C20.9458 7.96118 20.5003 7.97511 20.0618 8.00295L19.7833 8.2814C20.0757 8.70603 20.2567 9.22811 20.2567 9.79196Z" fill="url(#paint5_linear_159_1509)"/>
<path d="M12.5086 22.4335C12.1118 22.4335 11.7359 22.3221 11.4226 22.1202L8.9375 24.6054L10.3019 25.392C10.9353 25.754 11.9656 25.754 12.5921 25.392L15.3 23.8257L13.5875 22.1133C13.2812 22.3221 12.9053 22.4335 12.5086 22.4335Z" fill="url(#paint6_linear_159_1509)"/>
<path d="M3.27822 18.4587C3.2643 18.4587 3.25038 18.4587 3.24342 18.4587C2.95801 18.4587 2.68652 18.3891 2.44984 18.2708C2.0461 18.8973 1.6702 19.5446 1.3291 20.2059L4.28759 21.9184L3.27822 18.4587Z" fill="url(#paint7_linear_159_1509)"/>
<path d="M19.1984 18.1523C18.8086 18.1523 18.4605 18.0061 18.196 17.7625L14.4857 19.816C14.5344 19.997 14.5623 20.1849 14.5623 20.3798C14.5623 20.7766 14.4509 21.1525 14.249 21.4658L16.1355 23.3523L21.7531 20.1084C21.7949 20.0805 21.8436 20.0527 21.8854 20.0248L19.8597 17.9991C19.6578 18.0966 19.4351 18.1523 19.1984 18.1523Z" fill="url(#paint8_linear_159_1509)"/>
<defs>
<linearGradient id="paint0_linear_159_1509" x1="6.56758" y1="13.2563" x2="9.46067" y2="18.5603" gradientUnits="userSpaceOnUse">
<stop stop-color="white" stop-opacity="0.4"/>
<stop offset="1" stop-color="white" stop-opacity="0"/>
</linearGradient>
<linearGradient id="paint1_linear_159_1509" x1="11.7496" y1="10.4301" x2="14.6428" y2="15.7342" gradientUnits="userSpaceOnUse">
<stop stop-color="white" stop-opacity="0.4"/>
<stop offset="1" stop-color="white" stop-opacity="0"/>
</linearGradient>
<linearGradient id="paint2_linear_159_1509" x1="16.8501" y1="7.64774" x2="19.7432" y2="12.9517" gradientUnits="userSpaceOnUse">
<stop stop-color="white" stop-opacity="0.4"/>
<stop offset="1" stop-color="white" stop-opacity="0"/>
</linearGradient>
<linearGradient id="paint3_linear_159_1509" x1="4.25017" y1="14.5203" x2="7.14329" y2="19.8244" gradientUnits="userSpaceOnUse">
<stop stop-color="white" stop-opacity="0.4"/>
<stop offset="1" stop-color="white" stop-opacity="0"/>
</linearGradient>
<linearGradient id="paint4_linear_159_1509" x1="12.6703" y1="9.92774" x2="15.5634" y2="15.2318" gradientUnits="userSpaceOnUse">
<stop stop-color="white" stop-opacity="0.4"/>
<stop offset="1" stop-color="white" stop-opacity="0"/>
</linearGradient>
<linearGradient id="paint5_linear_159_1509" x1="19.4673" y1="6.2203" x2="22.3604" y2="11.5243" gradientUnits="userSpaceOnUse">
<stop stop-color="white" stop-opacity="0.4"/>
<stop offset="1" stop-color="white" stop-opacity="0"/>
</linearGradient>
<linearGradient id="paint6_linear_159_1509" x1="6.23948" y1="13.4352" x2="9.13263" y2="18.7393" gradientUnits="userSpaceOnUse">
<stop stop-color="white" stop-opacity="0.4"/>
<stop offset="1" stop-color="white" stop-opacity="0"/>
</linearGradient>
<linearGradient id="paint7_linear_159_1509" x1="0.725285" y1="16.4432" x2="3.61834" y2="21.7472" gradientUnits="userSpaceOnUse">
<stop stop-color="white" stop-opacity="0.4"/>
<stop offset="1" stop-color="white" stop-opacity="0"/>
</linearGradient>
<linearGradient id="paint8_linear_159_1509" x1="12.2847" y1="10.138" x2="15.1778" y2="15.442" gradientUnits="userSpaceOnUse">
<stop stop-color="white" stop-opacity="0.4"/>
<stop offset="1" stop-color="white" stop-opacity="0"/>
</linearGradient>
</defs>
</svg>
