<svg width="17" height="16" viewBox="0 0 17 16" fill="none" xmlns="http://www.w3.org/2000/svg">
<path fill-rule="evenodd" clip-rule="evenodd" d="M11.1406 6C10.0798 6 9.06234 6.42143 8.3122 7.17157C7.56205 7.92172 7.14062 8.93913 7.14062 10V14.75H9.14062V10C9.14062 9.46957 9.35134 8.96086 9.72641 8.58579C10.1015 8.21071 10.6102 8 11.1406 8C11.6711 8 12.1798 8.21071 12.5548 8.58579C12.9299 8.96086 13.1406 9.46957 13.1406 10V14.75H15.1406V10C15.1406 8.93913 14.7192 7.92172 13.9691 7.17157C13.2189 6.42143 12.2015 6 11.1406 6ZM7.60509 6.46447C8.54277 5.52678 9.81454 5 11.1406 5C12.4667 5 13.7385 5.52678 14.6762 6.46447C15.6138 7.40215 16.1406 8.67392 16.1406 10V15.25C16.1406 15.5261 15.9168 15.75 15.6406 15.75H12.6406C12.3645 15.75 12.1406 15.5261 12.1406 15.25V10C12.1406 9.73478 12.0353 9.48043 11.8477 9.29289C11.6602 9.10536 11.4058 9 11.1406 9C10.8754 9 10.6211 9.10536 10.4335 9.29289C10.246 9.48043 10.1406 9.73478 10.1406 10V15.25C10.1406 15.5261 9.91677 15.75 9.64062 15.75H6.64062C6.36448 15.75 6.14062 15.5261 6.14062 15.25V10C6.14062 8.67392 6.66741 7.40215 7.60509 6.46447Z" fill="white"/>
<path fill-rule="evenodd" clip-rule="evenodd" d="M0.140625 6.25C0.140625 5.97386 0.364483 5.75 0.640625 5.75H3.64062C3.91677 5.75 4.14062 5.97386 4.14062 6.25V15.25C4.14062 15.5261 3.91677 15.75 3.64062 15.75H0.640625C0.364483 15.75 0.140625 15.5261 0.140625 15.25V6.25ZM1.14062 6.75V14.75H3.14062V6.75H1.14062Z" fill="white"/>
<path fill-rule="evenodd" clip-rule="evenodd" d="M2.14062 1.5C1.58834 1.5 1.14062 1.94772 1.14062 2.5C1.14062 3.05228 1.58834 3.5 2.14062 3.5C2.69291 3.5 3.14062 3.05228 3.14062 2.5C3.14062 1.94772 2.69291 1.5 2.14062 1.5ZM0.140625 2.5C0.140625 1.39543 1.03606 0.5 2.14062 0.5C3.24519 0.5 4.14062 1.39543 4.14062 2.5C4.14062 3.60457 3.24519 4.5 2.14062 4.5C1.03606 4.5 0.140625 3.60457 0.140625 2.5Z" fill="white"/>
</svg>
