<svg width="21" height="17" viewBox="0 0 21 17" fill="none" xmlns="http://www.w3.org/2000/svg">
<path fill-rule="evenodd" clip-rule="evenodd" d="M12.6765 0.779064C13.4889 0.468969 14.377 0.415872 15.2206 0.626955C15.9555 0.810824 16.6257 1.18742 17.1635 1.71516C17.9423 1.4501 18.6796 1.07463 19.3527 0.599825L19.6409 1.00841L20.1267 1.12672C19.8418 2.29673 19.2583 3.3712 18.4351 4.24611C18.4571 4.41931 18.4684 4.59377 18.469 4.76852L18.469 4.77018C18.469 9.75185 16.0767 13.3752 12.6658 15.1907C9.26702 16.9997 4.90726 16.9873 1.00723 14.8207C0.804825 14.7082 0.706102 14.4715 0.768626 14.2486C0.83115 14.0256 1.03856 13.8748 1.26992 13.884C2.9461 13.9507 4.60292 13.5592 6.06511 12.7597C4.56553 11.9487 3.53535 10.9492 2.85221 9.87053C2.05119 8.60576 1.74627 7.26248 1.69101 6.0468C1.63585 4.83331 1.82873 3.73668 2.03296 2.94696C2.13538 2.55094 2.24148 2.22895 2.32275 2.00416C2.36342 1.89169 2.39795 1.80332 2.42282 1.74193C2.43525 1.71123 2.44528 1.68725 2.45247 1.67037L2.46105 1.65038L2.46281 1.64636C2.47015 1.62934 2.47849 1.61262 2.48783 1.59629L2.92195 1.84435L3.33113 1.557C4.12831 2.69215 5.19386 3.61252 6.43287 4.23616C7.5266 4.78667 8.72553 5.09086 9.94549 5.1299V4.79851C9.93455 3.93017 10.1902 3.07933 10.678 2.36078C11.1664 1.64129 11.864 1.08916 12.6765 0.779064ZM3.09069 2.87297C3.06113 2.9735 3.03097 3.08187 3.00111 3.19735C2.8135 3.92278 2.64064 4.91603 2.68998 6.0014C2.73921 7.08458 3.00901 8.24914 3.69702 9.33548C4.38303 10.4186 5.50383 11.4544 7.30476 12.2548C7.47066 12.3285 7.58356 12.4864 7.59971 12.6672C7.61586 12.848 7.53272 13.0234 7.38251 13.1254C6.13842 13.9699 4.73078 14.525 3.26236 14.7613C6.37733 15.9136 9.61071 15.684 12.1959 14.3079C15.2635 12.6752 17.4689 9.40217 17.469 4.77073C17.4683 4.5692 17.4489 4.36816 17.411 4.17021C17.3797 4.00628 17.4322 3.83753 17.5511 3.72034C18.0146 3.26322 18.3978 2.73543 18.6879 2.15937C18.1977 2.40449 17.6867 2.60764 17.1602 2.76617C16.9719 2.82288 16.7678 2.76392 16.6388 2.61553C16.2025 2.11393 15.6228 1.75841 14.9779 1.59705C14.333 1.43569 13.6541 1.47628 13.0331 1.71333C12.412 1.95037 11.8787 2.37244 11.5053 2.92244C11.132 3.47245 10.9365 4.12385 10.9454 4.78855L10.9455 4.79525H10.9455V5.6312C10.9455 5.9023 10.7295 6.12401 10.4584 6.13103C8.90695 6.17126 7.36959 5.82717 5.98327 5.12939C4.87769 4.57291 3.89554 3.80527 3.09069 2.87297Z" fill="white"/>
</svg>
