<svg width="15" height="16" viewBox="0 0 15 16" fill="none" xmlns="http://www.w3.org/2000/svg">
<path d="M7.455 9.01221C2.64759 9.01221 0 11.2865 0 15.4161C0 15.7386 0.261406 16.0001 0.583938 16.0001H14.326C14.6486 16.0001 14.91 15.7386 14.91 15.4161C14.91 11.2867 12.2624 9.01221 7.455 9.01221ZM1.18913 14.8322C1.41881 11.7445 3.52391 10.1801 7.455 10.1801C11.3861 10.1801 13.4912 11.7445 13.7211 14.8322H1.18913V14.8322Z" fill="#030D15"/>
<path d="M7.4555 0C5.24722 0 3.58203 1.69869 3.58203 3.95116C3.58203 6.26959 5.31966 8.15553 7.4555 8.15553C9.59134 8.15553 11.329 6.26959 11.329 3.95134C11.329 1.69869 9.66378 0 7.4555 0ZM7.4555 6.98784C5.96353 6.98784 4.74991 5.62569 4.74991 3.95134C4.74991 2.3385 5.88781 1.16788 7.4555 1.16788C8.99809 1.16788 10.1611 2.36437 10.1611 3.95134C10.1611 5.62569 8.94747 6.98784 7.4555 6.98784Z" fill="#030D15"/>
</svg>
