<svg width="20" height="15" viewBox="0 0 20 15" fill="none" xmlns="http://www.w3.org/2000/svg">
<path fill-rule="evenodd" clip-rule="evenodd" d="M9.64053 0.5L9.64062 1L9.64059 1.5L9.57817 1.50009L9.39836 1.50073C9.24257 1.50146 9.0182 1.50292 8.74449 1.50585C8.19685 1.51171 7.45261 1.52342 6.66518 1.54682C5.87694 1.57025 5.04943 1.60527 4.33404 1.65745C3.60747 1.71044 3.03818 1.77861 2.73729 1.85844C2.43818 1.94372 2.16672 2.10613 1.95013 2.32941C1.73637 2.54978 1.58351 2.82177 1.50637 3.11875C1.25637 4.51113 1.1341 5.92345 1.14109 7.33811L1.14111 7.34372C1.13218 8.76624 1.25393 10.1865 1.50486 11.5867C1.59001 11.8714 1.74532 12.1303 1.9567 12.3395C2.17326 12.5538 2.44137 12.7088 2.73519 12.7894C3.03553 12.8695 3.60578 12.9379 4.33404 12.991C5.04943 13.0432 5.87694 13.0782 6.66518 13.1016C7.45261 13.125 8.19685 13.1367 8.74449 13.1426C9.0182 13.1455 9.24256 13.147 9.39836 13.1477L9.57817 13.1483L9.63973 13.1484L9.64062 13.6484L9.64053 14.1484L9.57596 14.1483L9.39367 14.1477C9.23614 14.147 9.00976 14.1455 8.73379 14.1425C8.18205 14.1366 7.43114 14.1248 6.63547 14.1012C5.84061 14.0776 4.99708 14.042 4.26129 13.9883C3.53949 13.9357 2.87907 13.8631 2.47545 13.7551L2.47267 13.7544C2.01241 13.6284 1.59242 13.3859 1.25326 13.0503C0.914106 12.7146 0.667254 12.2971 0.536557 11.8382C0.532038 11.8223 0.528307 11.8063 0.525378 11.79C0.260534 10.3218 0.13189 8.83217 0.141085 7.34025C0.13394 5.85948 0.262574 4.38117 0.525374 2.92389C0.527351 2.91292 0.529694 2.90203 0.532399 2.89122C0.65095 2.41758 0.892392 1.98361 1.23234 1.63315C1.57229 1.28269 1.9987 1.02815 2.46851 0.895228L2.47543 0.89327C2.87906 0.785324 3.53949 0.712742 4.26129 0.660095C4.99708 0.606428 5.84061 0.570884 6.63547 0.547264C7.43114 0.52362 8.18205 0.511811 8.73379 0.505909C9.00976 0.502957 9.23614 0.50148 9.39367 0.500741L9.57596 0.500093L9.64053 0.5ZM16.544 12.79C16.2431 12.8698 15.6738 12.938 14.9472 12.991C14.2318 13.0432 13.4043 13.0782 12.6161 13.1016C11.8286 13.125 11.0844 13.1367 10.5368 13.1426C10.263 13.1455 10.0387 13.147 9.88289 13.1477L9.70308 13.1483L9.64152 13.1484L9.64062 13.6484L9.64053 14.1484L9.70529 14.1483L9.88758 14.1477C10.0451 14.147 10.2715 14.1455 10.5475 14.1425C11.0992 14.1366 11.8501 14.1248 12.6458 14.1012C13.4406 14.0776 14.2842 14.042 15.02 13.9883C15.7418 13.9357 16.4022 13.8631 16.8058 13.7551L16.8127 13.7532C17.2826 13.6203 17.709 13.3657 18.0489 13.0153C18.3889 12.6648 18.6303 12.2309 18.7489 11.7572C18.7516 11.7464 18.7539 11.7355 18.7559 11.7245C19.0167 10.2781 19.1453 8.81104 19.1402 7.34134C19.1494 5.84928 19.0207 4.35954 18.7559 2.89114L18.2638 2.9799L18.7489 2.85849C18.6303 2.38485 18.3889 1.95089 18.0489 1.60043C17.709 1.24997 17.2825 0.995421 16.8127 0.862503C16.8069 0.86086 16.8011 0.859322 16.7952 0.85789C16.3956 0.760298 15.7388 0.69415 15.0168 0.646069C14.2819 0.597127 13.4391 0.564694 12.6445 0.543136C11.8492 0.521558 11.0986 0.51078 10.547 0.505393C10.2711 0.502698 10.0448 0.50135 9.88738 0.500676L9.70519 0.500085L9.64053 0.5L9.64062 1L9.64059 1.5L9.70317 1.50008L9.88309 1.50067C10.039 1.50133 10.2634 1.50267 10.5372 1.50535C11.085 1.5107 11.8296 1.52139 12.6174 1.54277C13.4059 1.56416 14.2341 1.59616 14.9504 1.64386C15.6725 1.69195 16.243 1.75392 16.5492 1.82721C16.8462 1.91288 17.1158 2.0747 17.3311 2.29668C17.5449 2.51705 17.6977 2.78904 17.7749 3.08602C18.0268 4.48893 18.1491 5.91208 18.1402 7.33744L18.1402 7.34238C18.1452 8.74633 18.0229 10.1478 17.7749 11.5297C17.6977 11.8267 17.5449 12.0987 17.3311 12.319C17.1145 12.5423 16.8431 12.7047 16.544 12.79Z" fill="white"/>
<path fill-rule="evenodd" clip-rule="evenodd" d="M7.5484 4.23284C7.7023 4.14332 7.8922 4.14239 8.04698 4.23041L12.7513 6.90572C12.9076 6.9946 13.0041 7.16056 13.0041 7.34035C13.0041 7.52015 12.9076 7.68611 12.7513 7.77499L8.04698 10.4503C7.8922 10.5383 7.7023 10.5374 7.5484 10.4479C7.39449 10.3583 7.2998 10.1937 7.2998 10.0157V4.66504C7.2998 4.48699 7.39449 4.32237 7.5484 4.23284ZM8.2998 5.52459V9.15612L11.4927 7.34035L8.2998 5.52459Z" fill="white"/>
</svg>
